<?xml version="1.0" encoding="UTF-8" standalone="no"?>
<svg
   width="3000mm"
   height="900mm"
   viewBox="0 0 3000 900"
   version="1.1"
   id="svg8"
   sodipodi:docname="PredatorHeaderLight.svg"
   inkscape:version="1.1.1 (3bf5ae0d25, 2021-09-20)"
   xmlns:inkscape="http://www.inkscape.org/namespaces/inkscape"
   xmlns:sodipodi="http://sodipodi.sourceforge.net/DTD/sodipodi-0.dtd"
   xmlns:xlink="http://www.w3.org/1999/xlink"
   xmlns="http://www.w3.org/2000/svg"
   xmlns:svg="http://www.w3.org/2000/svg"
   xmlns:rdf="http://www.w3.org/1999/02/22-rdf-syntax-ns#"
   xmlns:cc="http://creativecommons.org/ns#"
   xmlns:dc="http://purl.org/dc/elements/1.1/">
  <defs
     id="defs2">
    <rect
       x="1058.5329"
       y="645.21905"
       width="1833.253"
       height="235.88391"
       id="rect869" />
    <rect
       x="1054.7838"
       y="573.16945"
       width="1694.0356"
       height="285.24681"
       id="rect857" />
    <rect
       x="1057.9654"
       y="166.63675"
       width="1744.0873"
       height="374.34139"
       id="rect851" />
    <rect
       x="1054.129"
       y="178.03144"
       width="1642.1068"
       height="339.36276"
       id="rect845" />
    <linearGradient
       inkscape:collect="always"
       id="linearGradient847">
      <stop
         style="stop-color:#303030;stop-opacity:1"
         offset="0"
         id="stop843" />
      <stop
         style="stop-color:#f60000;stop-opacity:1"
         offset="1"
         id="stop845" />
    </linearGradient>
    <linearGradient
       inkscape:collect="always"
       xlink:href="#linearGradient847"
       id="linearGradient849"
       x1="513.4093"
       y1="705.85339"
       x2="500.90707"
       y2="207.35851"
       gradientUnits="userSpaceOnUse"
       gradientTransform="translate(17.122842,21.290987)" />
  </defs>
  <sodipodi:namedview
     id="base"
     pagecolor="#ffffff"
     bordercolor="#666666"
     borderopacity="1.0"
     inkscape:pageopacity="0.0"
     inkscape:pageshadow="2"
     inkscape:zoom="0.062500002"
     inkscape:cx="5639.9998"
     inkscape:cy="2079.9999"
     inkscape:document-units="mm"
     inkscape:current-layer="layer1"
     inkscape:document-rotation="0"
     showgrid="false"
     inkscape:window-width="1350"
     inkscape:window-height="683"
     inkscape:window-x="8"
     inkscape:window-y="40"
     inkscape:window-maximized="0"
     fit-margin-top="0"
     fit-margin-left="0"
     fit-margin-right="0"
     fit-margin-bottom="0"
     inkscape:pagecheckerboard="0" />
  <metadata
     id="metadata5">
    <rdf:RDF>
      <cc:Work
         rdf:about="">
        <dc:format>image/svg+xml</dc:format>
        <dc:type
           rdf:resource="http://purl.org/dc/dcmitype/StillImage" />
        <dc:title />
      </cc:Work>
    </rdf:RDF>
  </metadata>
  <g
     inkscape:label="Layer 1"
     inkscape:groupmode="layer"
     id="layer1"
     transform="translate(-16.194376,-78.009159)">
    <path
       sodipodi:type="star"
       style="fill:url(#linearGradient849);fill-opacity:1;stroke:#ffffff;stroke-width:40;stroke-linecap:round;stroke-linejoin:round;stroke-miterlimit:4;stroke-dasharray:none;stroke-opacity:1;paint-order:markers stroke fill"
       id="Logo"
       sodipodi:sides="3"
       sodipodi:cx="522.62366"
       sodipodi:cy="664.64929"
       sodipodi:r1="550"
       sodipodi:r2="150"
       sodipodi:arg1="0.52"
       sodipodi:arg2="1.5"
       inkscape:flatsided="false"
       inkscape:rounded="0"
       inkscape:randomized="0"
       d="M 999.92421,937.93337 533.23424,814.27354 47.302431,941.36165 387.73997,599.0262 520.64433,114.65285 646.89677,580.64814 Z"
       inkscape:label="#Logo" />
    <text
       xml:space="preserve"
       id="text843"
       style="fill:black;fill-opacity:1;stroke:none;font-family:sans-serif;font-style:normal;font-weight:normal;font-size:7.05555556px;line-height:1.25;letter-spacing:0px;word-spacing:0px;-inkscape-font-specification:'sans-serif, Normal';font-stretch:normal;font-variant:normal;text-align:start;writing-mode:lr;font-variant-ligatures:normal;font-variant-caps:normal;font-variant-numeric:normal;font-feature-settings:normal;white-space:pre;shape-inside:url(#rect845)" />
    <g
       aria-label="PREDATOR"
       transform="matrix(1.1539972,0,0,1.1539972,-246.82951,53.067074)"
       id="Title"
       style="font-weight:200;font-size:317.5px;line-height:1.25;font-family:Lato;-inkscape-font-specification:'Lato, Ultra-Light';letter-spacing:0px;word-spacing:0px;white-space:pre;shape-inside:url(#rect851);fill:#ffffff;stroke-width:0.866553">
      <path
         d="m 1102.0973,368.56672 v 93.345 h -8.7312 v -223.2025 h 53.34 q 37.7825,0 57.3087,16.1925 19.685,16.1925 19.685,48.5775 0,14.12875 -5.5562,26.19375 -5.3975,11.90625 -15.5575,20.6375 -10.16,8.5725 -24.4475,13.49375 -14.1288,4.7625 -31.4325,4.7625 z m 0,-7.14375 h 44.6088 q 15.7162,0 28.2575,-4.445 12.7,-4.445 21.4312,-12.22375 8.89,-7.77875 13.6525,-18.415 4.7625,-10.63625 4.7625,-22.86 0,-28.2575 -16.9862,-43.02125 -16.9863,-14.76375 -51.1175,-14.76375 h -44.6088 z"
         style="font-size:317.5px"
         id="path30" />
      <path
         d="m 1281.961,356.81922 v 105.0925 h -8.7312 v -223.2025 h 53.8162 q 36.3538,0 55.245,14.12875 18.8913,14.12875 18.8913,42.8625 0,13.17625 -4.9213,23.97125 -4.9212,10.795 -13.8112,18.7325 -8.89,7.77875 -21.59,12.3825 -12.7,4.60375 -28.0988,5.55625 2.8575,1.5875 5.5563,4.7625 l 83.0262,100.80625 h -7.1437 q -1.7463,0 -3.175,-0.47625 -1.27,-0.47625 -2.54,-2.2225 l -78.74,-96.36125 q -1.27,-1.74625 -2.6988,-2.8575 -1.27,-1.11125 -3.0162,-1.74625 -1.5875,-0.79375 -3.9688,-1.11125 -2.2225,-0.3175 -5.5562,-0.3175 z m 0,-6.6675 h 42.545 q 15.7163,0 28.2575,-3.65125 12.7,-3.81 21.4313,-10.795 8.89,-7.14375 13.4937,-17.145 4.7625,-10.00125 4.7625,-22.5425 0,-25.87625 -16.8275,-38.1 -16.8275,-12.22375 -48.5775,-12.22375 h -45.085 z"
         style="font-size:317.5px"
         id="path32" />
      <path
         d="m 1594.5392,238.70922 v 7.46125 h -123.0313 v 98.90125 h 103.6638 v 7.3025 h -103.6638 v 102.07625 h 123.3488 l -0.3175,7.46125 h -131.7625 v -223.2025 z"
         style="font-size:317.5px"
         id="path34" />
      <path
         d="m 1832.3464,350.31047 q 0,26.19375 -7.62,46.99 -7.62,20.6375 -21.4312,35.08375 -13.8113,14.2875 -33.02,21.9075 -19.2088,7.62 -42.3863,7.62 h -80.4862 v -223.2025 h 80.4862 q 23.1775,0 42.3863,7.62 19.2087,7.62 33.02,22.06625 13.8112,14.2875 21.4312,35.08375 7.62,20.6375 7.62,46.83125 z m -9.2075,0 q 0,-24.92375 -6.985,-44.29125 -6.8262,-19.52625 -19.5262,-32.86125 -12.5413,-13.335 -30.1625,-20.32 -17.4625,-6.985 -38.5763,-6.985 h -71.755 v 208.915 h 71.755 q 21.1138,0 38.5763,-6.985 17.6212,-6.985 30.1625,-20.32 12.7,-13.335 19.5262,-32.7025 6.985,-19.52625 6.985,-44.45 z"
         style="font-size:317.5px"
         id="path36" />
      <path
         d="m 2047.6104,461.91172 h -6.8262 q -2.3813,0 -3.4925,-2.69875 l -29.0513,-70.64375 h -114.6175 l -29.0512,70.64375 q -0.7938,2.69875 -3.6513,2.69875 h -6.5087 l 92.3925,-223.2025 h 8.4137 z m -151.13,-80.01 h 108.9025 l -51.1175,-124.30125 q -0.7937,-2.2225 -1.7462,-4.445 -0.7938,-2.2225 -1.5875,-4.92125 -0.7938,2.69875 -1.7463,4.92125 -0.7937,2.2225 -1.5875,4.445 z"
         style="font-size:317.5px"
         id="path38" />
      <path
         d="m 2208.5819,238.70922 v 7.62 h -81.7562 v 215.5825 h -8.7313 v -215.5825 h -82.2325 v -7.62 z"
         style="font-size:317.5px"
         id="path40" />
      <path
         d="m 2427.974,350.31047 q 0,26.19375 -7.62,47.3075 -7.62,20.955 -21.4313,35.8775 -13.8112,14.76375 -33.02,22.70125 -19.2087,7.9375 -42.545,7.9375 -23.0187,0 -42.2275,-7.9375 -19.2087,-7.9375 -33.02,-22.70125 -13.8112,-14.9225 -21.4312,-35.8775 -7.62,-21.11375 -7.62,-47.3075 0,-26.035 7.62,-47.14875 7.62,-21.11375 21.4312,-35.8775 13.8113,-14.9225 33.02,-23.01875 19.2088,-8.09625 42.2275,-8.09625 23.3363,0 42.545,8.09625 19.2088,7.9375 33.02,22.86 13.8113,14.76375 21.4313,35.8775 7.62,21.11375 7.62,47.3075 z m -9.2075,0 q 0,-24.92375 -6.985,-44.60875 -6.8263,-19.84375 -19.5263,-33.655 -12.5412,-13.81125 -30.1625,-21.11375 -17.4625,-7.3025 -38.735,-7.3025 -20.955,0 -38.5762,7.3025 -17.4625,7.3025 -30.1625,21.11375 -12.5413,13.81125 -19.685,33.655 -6.985,19.685 -6.985,44.60875 0,24.92375 6.985,44.7675 7.1437,19.685 19.685,33.3375 12.7,13.6525 30.1625,20.955 17.6212,7.3025 38.5762,7.3025 21.2725,0 38.735,-7.3025 17.6213,-7.3025 30.1625,-20.955 12.7,-13.6525 19.5263,-33.3375 6.985,-19.84375 6.985,-44.7675 z"
         style="font-size:317.5px"
         id="path42" />
      <path
         d="m 2492.5848,356.81922 v 105.0925 h -8.7313 v -223.2025 h 53.8163 q 36.3537,0 55.245,14.12875 18.8912,14.12875 18.8912,42.8625 0,13.17625 -4.9212,23.97125 -4.9213,10.795 -13.8113,18.7325 -8.89,7.77875 -21.59,12.3825 -12.7,4.60375 -28.0987,5.55625 2.8575,1.5875 5.5562,4.7625 l 83.0263,100.80625 h -7.1438 q -1.7462,0 -3.175,-0.47625 -1.27,-0.47625 -2.54,-2.2225 l -78.74,-96.36125 q -1.27,-1.74625 -2.6987,-2.8575 -1.27,-1.11125 -3.0163,-1.74625 -1.5875,-0.79375 -3.9687,-1.11125 -2.2225,-0.3175 -5.5563,-0.3175 z m 0,-6.6675 h 42.545 q 15.7162,0 28.2575,-3.65125 12.7,-3.81 21.4312,-10.795 8.89,-7.14375 13.4938,-17.145 4.7625,-10.00125 4.7625,-22.5425 0,-25.87625 -16.8275,-38.1 -16.8275,-12.22375 -48.5775,-12.22375 h -45.085 z"
         style="font-size:317.5px"
         id="path44" />
    </g>
    <text
       xml:space="preserve"
       id="text855"
       style="fill:#000000;fill-opacity:1;stroke:none;font-family:sans-serif;font-style:normal;font-weight:normal;font-size:105.833px;line-height:1.25;letter-spacing:0px;word-spacing:0px;-inkscape-font-specification:'sans-serif, Normal';font-stretch:normal;font-variant:normal;text-align:start;writing-mode:lr-tb;font-variant-ligatures:normal;font-variant-caps:normal;font-variant-numeric:normal;white-space:pre;shape-inside:url(#rect857);font-variant-east-asian:normal" />
    <text
       xml:space="preserve"
       style="font-style:normal;font-variant:normal;font-weight:normal;font-stretch:normal;font-size:7.05556px;line-height:1.25;font-family:sans-serif;-inkscape-font-specification:'sans-serif, Normal';font-variant-ligatures:normal;font-variant-caps:normal;font-variant-numeric:normal;font-feature-settings:normal;text-align:start;letter-spacing:0px;word-spacing:0px;writing-mode:lr-tb;text-anchor:start;fill:#000000;fill-opacity:1;stroke:none;stroke-width:0.264583"
       x="1900.7932"
       y="643.17731"
       id="text865"><tspan
         sodipodi:role="line"
         id="tspan863"
         x="1900.7932"
         y="643.17731"
         style="stroke-width:0.264583">L</tspan></text>
    <g
       aria-label="LICENSE PLATE RECOGNITION SYSTEM"
       transform="matrix(1.3805678,0,0,1.3805678,-455.06898,-255.14511)"
       id="Subtitle"
       style="font-size:7.05556px;line-height:1.25;-inkscape-font-specification:'sans-serif, Normal';letter-spacing:0px;word-spacing:0px;white-space:pre;shape-inside:url(#rect869);fill:#ffffff;stroke-width:0.72434">
      <path
         d="m 1075.4313,701.31045 h 19.05 v 9.52501 h -30.9739 V 659.4357 h 11.9239 z"
         style="font-weight:900;font-size:70.5556px;font-family:Lato;-inkscape-font-specification:'Lato, Heavy'"
         id="path65" />
      <path
         d="M 1112.5435,710.83546 H 1100.549 V 659.4357 h 11.9945 z"
         style="font-weight:900;font-size:70.5556px;font-family:Lato;-inkscape-font-specification:'Lato, Heavy'"
         id="path67" />
      <path
         d="m 1157.1346,697.53573 q 0.4233,0 0.8466,0.17639 0.4234,0.14111 0.8114,0.52917 l 4.7272,4.97417 q -3.1044,4.05694 -7.7964,6.13833 -4.6566,2.04612 -11.0419,2.04612 -5.8561,0 -10.5128,-1.97556 -4.6214,-2.01084 -7.8669,-5.50334 -3.2103,-3.52778 -4.9389,-8.32556 -1.7286,-4.83306 -1.7286,-10.47751 0,-5.75028 1.8697,-10.54806 1.8697,-4.83306 5.2564,-8.32556 3.3866,-3.4925 8.1139,-5.43278 4.7272,-1.94028 10.4069,-1.94028 2.8928,0 5.4328,0.52917 2.5753,0.49389 4.7978,1.41111 2.2225,0.88194 4.0922,2.15194 1.8697,1.27001 3.3161,2.75167 l -4.0217,5.39751 q -0.388,0.49389 -0.9172,0.91722 -0.5291,0.38805 -1.4816,0.38805 -0.635,0 -1.1995,-0.28222 -0.5644,-0.28222 -1.1994,-0.67028 -0.635,-0.42333 -1.4111,-0.88194 -0.7409,-0.49389 -1.7992,-0.88195 -1.0231,-0.42333 -2.4342,-0.70555 -1.3758,-0.28222 -3.2455,-0.28222 -2.9634,0 -5.4328,1.09361 -2.4342,1.09361 -4.2334,3.21028 -1.7638,2.08139 -2.7516,5.15056 -0.9525,3.03389 -0.9525,6.94972 0,3.95112 1.0583,7.02029 1.0936,3.06916 2.9281,5.18583 1.8697,2.08139 4.3391,3.175 2.4695,1.09362 5.2917,1.09362 1.6228,0 2.9633,-0.14111 1.3406,-0.17639 2.5048,-0.52917 1.1641,-0.38806 2.1872,-0.98778 1.023,-0.635 2.0814,-1.5875 0.4233,-0.35278 0.9172,-0.56445 0.4939,-0.24694 1.0231,-0.24694 z"
         style="font-weight:900;font-size:70.5556px;font-family:Lato;-inkscape-font-specification:'Lato, Heavy'"
         id="path69" />
      <path
         d="m 1201.8314,659.4357 v 9.17223 h -21.0961 v 11.99445 h 16.1572 v 8.81946 h -16.1572 v 12.24139 h 21.0961 v 9.17223 h -33.0906 V 659.4357 Z"
         style="font-weight:900;font-size:70.5556px;font-family:Lato;-inkscape-font-specification:'Lato, Heavy'"
         id="path71" />
      <path
         d="m 1215.4487,659.4357 q 0.7761,0 1.3052,0.0706 0.5292,0.0706 0.9525,0.28222 0.4234,0.17639 0.8114,0.52917 0.3881,0.35278 0.882,0.9525 l 24.4122,30.86808 q -0.1411,-1.48167 -0.2117,-2.85751 -0.071,-1.41111 -0.071,-2.64583 V 659.4357 h 10.5128 v 51.39976 h -6.2089 q -1.3759,0 -2.3284,-0.42333 -0.9172,-0.45861 -1.8344,-1.55223 l -24.2359,-30.62113 q 0.1059,1.34056 0.1764,2.64584 0.071,1.27 0.071,2.39889 v 27.55196 h -10.5128 V 659.4357 h 6.2795 z"
         style="font-weight:900;font-size:70.5556px;font-family:Lato;-inkscape-font-specification:'Lato, Heavy'"
         id="path73" />
      <path
         d="m 1292.3894,669.87793 q -0.5291,0.84667 -1.1289,1.27 -0.5644,0.42334 -1.4816,0.42334 -0.8114,0 -1.7639,-0.49389 -0.9172,-0.52917 -2.1167,-1.16417 -1.1642,-0.635 -2.6811,-1.12889 -1.5169,-0.52917 -3.4572,-0.52917 -3.3514,0 -5.0095,1.44639 -1.6227,1.41112 -1.6227,3.84528 0,1.55223 0.9877,2.57528 0.9878,1.02306 2.5753,1.76389 1.6228,0.74084 3.6689,1.37584 2.0814,0.59972 4.2333,1.37583 2.152,0.74084 4.1981,1.76389 2.0814,1.02306 3.6689,2.61056 1.6228,1.5875 2.6105,3.88056 0.9878,2.25778 0.9878,5.46806 0,3.56306 -1.2347,6.6675 -1.2347,3.10445 -3.5983,5.43278 -2.3284,2.29306 -5.7856,3.63362 -3.4219,1.30528 -7.7964,1.30528 -2.3989,0 -4.9036,-0.49389 -2.4694,-0.49389 -4.7978,-1.37584 -2.3283,-0.91722 -4.3744,-2.15194 -2.0461,-1.23473 -3.5631,-2.75167 l 3.5278,-5.57389 q 0.4233,-0.59973 1.0936,-0.98778 0.7056,-0.42334 1.5169,-0.42334 1.0584,0 2.1167,0.67028 1.0936,0.67028 2.4342,1.48167 1.3758,0.81139 3.1397,1.48167 1.7639,0.67027 4.1628,0.67027 3.2455,0 5.0447,-1.41111 1.7992,-1.44639 1.7992,-4.55083 0,-1.79917 -0.9878,-2.92806 -0.9878,-1.12889 -2.6106,-1.86972 -1.5875,-0.74084 -3.6336,-1.30528 -2.0461,-0.56445 -4.198,-1.23473 -2.152,-0.70555 -4.1981,-1.69333 -2.0461,-1.02306 -3.6689,-2.64584 -1.5875,-1.65805 -2.5753,-4.09222 -0.9877,-2.46945 -0.9877,-6.06778 0,-2.89278 1.1641,-5.64445 1.1642,-2.75167 3.422,-4.90362 2.2578,-2.15194 5.5386,-3.42194 3.2808,-1.30528 7.5142,-1.30528 2.3636,0 4.5861,0.38806 2.2578,0.35277 4.2686,1.09361 2.0108,0.70555 3.7394,1.72861 1.7639,0.98778 3.1398,2.25778 z"
         style="font-weight:900;font-size:70.5556px;font-family:Lato;-inkscape-font-specification:'Lato, Heavy'"
         id="path75" />
      <path
         d="m 1336.1691,659.4357 v 9.17223 h -21.0961 v 11.99445 h 16.1572 v 8.81946 h -16.1572 v 12.24139 h 21.0961 v 9.17223 h -33.0906 V 659.4357 Z"
         style="font-weight:900;font-size:70.5556px;font-family:Lato;-inkscape-font-specification:'Lato, Heavy'"
         id="path77" />
      <path
         d="m 1371.7291,693.65517 v 17.18029 h -11.9239 V 659.4357 h 18.1328 q 5.4327,0 9.3133,1.30528 3.9158,1.27 6.4206,3.52778 2.54,2.25778 3.7394,5.32695 1.1994,3.06917 1.1994,6.63223 0,3.84528 -1.2347,7.05556 -1.2347,3.21028 -3.7747,5.50333 -2.54,2.29306 -6.4558,3.59834 -3.8806,1.27 -9.2075,1.27 z m 0,-8.99584 h 6.2089 q 4.6566,0 6.7027,-2.2225 2.0461,-2.2225 2.0461,-6.20889 0,-1.76389 -0.5291,-3.21028 -0.5292,-1.44639 -1.6228,-2.46945 -1.0583,-1.05833 -2.7164,-1.62278 -1.6228,-0.56444 -3.8805,-0.56444 h -6.2089 z"
         style="font-weight:900;font-size:70.5556px;font-family:Lato;-inkscape-font-specification:'Lato, Heavy'"
         id="path79" />
      <path
         d="m 1416.6024,701.31045 h 19.05 v 9.52501 h -30.9739 V 659.4357 h 11.9239 z"
         style="font-weight:900;font-size:70.5556px;font-family:Lato;-inkscape-font-specification:'Lato, Heavy'"
         id="path81" />
      <path
         d="m 1487.8283,710.83546 h -9.2428 q -1.5522,0 -2.5047,-0.70556 -0.9525,-0.74083 -1.4464,-1.86972 l -3.0339,-8.96056 h -19.5439 l -3.0339,8.96056 q -0.3881,0.98778 -1.4111,1.79917 -0.9878,0.77611 -2.4695,0.77611 h -9.3133 l 19.8967,-51.39976 h 12.2061 z m -33.0201,-19.64973 h 14.0406 l -4.7272,-14.07585 q -0.5292,-1.34055 -1.1289,-3.13972 -0.5997,-1.83445 -1.1995,-3.95112 -0.5644,2.15195 -1.1641,3.9864 -0.5645,1.83444 -1.0936,3.175 z"
         style="font-weight:900;font-size:70.5556px;font-family:Lato;-inkscape-font-specification:'Lato, Heavy'"
         id="path83" />
      <path
         d="m 1523.8114,659.4357 v 9.45445 h -14.4639 v 41.94531 h -11.9239 v -41.94531 h -14.4639 v -9.45445 z"
         style="font-weight:900;font-size:70.5556px;font-family:Lato;-inkscape-font-specification:'Lato, Heavy'"
         id="path85" />
      <path
         d="m 1562.9345,659.4357 v 9.17223 h -21.0962 v 11.99445 h 16.1573 v 8.81946 h -16.1573 v 12.24139 h 21.0962 v 9.17223 h -33.0906 V 659.4357 Z"
         style="font-weight:900;font-size:70.5556px;font-family:Lato;-inkscape-font-specification:'Lato, Heavy'"
         id="path87" />
      <path
         d="m 1598.4944,691.82073 v 19.01473 h -11.9239 V 659.4357 h 16.7217 q 5.5739,0 9.4897,1.16417 3.9511,1.12889 6.4205,3.175 2.5048,2.04612 3.6337,4.83306 1.1289,2.78695 1.1289,6.06778 0,2.50473 -0.6703,4.72723 -0.6703,2.2225 -2.0109,4.1275 -1.3052,1.86973 -3.2455,3.35139 -1.905,1.48167 -4.4097,2.43417 1.1994,0.59972 2.2225,1.51695 1.023,0.88194 1.8344,2.11667 l 10.9361,17.88584 h -10.795 q -2.9986,0 -4.3039,-2.25778 l -8.5372,-14.92251 q -0.5997,-0.9525 -1.3406,-1.37583 -0.7408,-0.45861 -2.1166,-0.45861 z m 0,-8.21973 h 4.7978 q 2.4341,0 4.1275,-0.59972 1.7286,-0.63501 2.8222,-1.72862 1.0936,-1.09361 1.5875,-2.54 0.4939,-1.48167 0.4939,-3.175 0,-3.38667 -2.2225,-5.29167 -2.1872,-1.905 -6.8086,-1.905 h -4.7978 z"
         style="font-weight:900;font-size:70.5556px;font-family:Lato;-inkscape-font-specification:'Lato, Heavy'"
         id="path89" />
      <path
         d="m 1666.0513,659.4357 v 9.17223 h -21.0961 v 11.99445 h 16.1572 v 8.81946 h -16.1572 v 12.24139 h 21.0961 v 9.17223 h -33.0906 V 659.4357 Z"
         style="font-weight:900;font-size:70.5556px;font-family:Lato;-inkscape-font-specification:'Lato, Heavy'"
         id="path91" />
      <path
         d="m 1706.9735,697.53573 q 0.4233,0 0.8466,0.17639 0.4234,0.14111 0.8114,0.52917 l 4.7273,4.97417 q -3.1045,4.05694 -7.7964,6.13833 -4.6567,2.04612 -11.042,2.04612 -5.8561,0 -10.5128,-1.97556 -4.6214,-2.01084 -7.8669,-5.50334 -3.2103,-3.52778 -4.9389,-8.32556 -1.7286,-4.83306 -1.7286,-10.47751 0,-5.75028 1.8697,-10.54806 1.8697,-4.83306 5.2564,-8.32556 3.3867,-3.4925 8.1139,-5.43278 4.7272,-1.94028 10.4069,-1.94028 2.8928,0 5.4328,0.52917 2.5753,0.49389 4.7978,1.41111 2.2225,0.88194 4.0922,2.15194 1.8697,1.27001 3.3161,2.75167 l -4.0216,5.39751 q -0.3881,0.49389 -0.9173,0.91722 -0.5291,0.38805 -1.4816,0.38805 -0.635,0 -1.1995,-0.28222 -0.5644,-0.28222 -1.1994,-0.67028 -0.635,-0.42333 -1.4111,-0.88194 -0.7409,-0.49389 -1.7992,-0.88195 -1.023,-0.42333 -2.4342,-0.70555 -1.3758,-0.28222 -3.2455,-0.28222 -2.9634,0 -5.4328,1.09361 -2.4342,1.09361 -4.2333,3.21028 -1.7639,2.08139 -2.7517,5.15056 -0.9525,3.03389 -0.9525,6.94972 0,3.95112 1.0583,7.02029 1.0936,3.06916 2.9281,5.18583 1.8697,2.08139 4.3392,3.175 2.4694,1.09362 5.2916,1.09362 1.6228,0 2.9634,-0.14111 1.3405,-0.17639 2.5047,-0.52917 1.1642,-0.38806 2.1872,-0.98778 1.0231,-0.635 2.0814,-1.5875 0.4233,-0.35278 0.9172,-0.56445 0.4939,-0.24694 1.0231,-0.24694 z"
         style="font-weight:900;font-size:70.5556px;font-family:Lato;-inkscape-font-specification:'Lato, Heavy'"
         id="path93" />
      <path
         d="m 1767.8276,685.11794 q 0,5.5739 -1.9403,10.37168 -1.905,4.79778 -5.3975,8.36084 -3.4925,3.52778 -8.4314,5.53861 -4.9036,2.01084 -10.9008,2.01084 -5.9972,0 -10.9361,-2.01084 -4.9389,-2.01083 -8.4667,-5.53861 -3.4925,-3.56306 -5.4328,-8.36084 -1.905,-4.79778 -1.905,-10.37168 0,-5.57389 1.905,-10.37167 1.9403,-4.79778 5.4328,-8.32556 3.5278,-3.52778 8.4667,-5.53862 4.9389,-2.01083 10.9361,-2.01083 5.9972,0 10.9008,2.04611 4.9389,2.01084 8.4314,5.53862 3.4925,3.52778 5.3975,8.32556 1.9403,4.79778 1.9403,10.33639 z m -12.2061,0 q 0,-3.81 -0.9878,-6.84389 -0.9878,-3.06917 -2.8575,-5.18584 -1.8344,-2.11666 -4.5155,-3.24555 -2.6812,-1.12889 -6.1031,-1.12889 -3.4572,0 -6.1736,1.12889 -2.6811,1.12889 -4.5509,3.24555 -1.8344,2.11667 -2.8222,5.18584 -0.9878,3.03389 -0.9878,6.84389 0,3.84528 0.9878,6.91445 0.9878,3.03389 2.8222,5.15056 1.8698,2.11667 4.5509,3.24556 2.7164,1.09361 6.1736,1.09361 3.4219,0 6.1031,-1.09361 2.6811,-1.12889 4.5155,-3.24556 1.8697,-2.11667 2.8575,-5.15056 0.9878,-3.06917 0.9878,-6.91445 z"
         style="font-weight:900;font-size:70.5556px;font-family:Lato;-inkscape-font-specification:'Lato, Heavy'"
         id="path95" />
      <path
         d="m 1817.8161,705.89657 q -3.9511,2.89278 -8.4314,4.19806 -4.445,1.30528 -9.3133,1.30528 -6.35,0 -11.5711,-1.97556 -5.1859,-2.01084 -8.89,-5.50334 -3.7042,-3.52778 -5.715,-8.32556 -2.0109,-4.83306 -2.0109,-10.47751 0,-5.75028 1.905,-10.54806 1.905,-4.83306 5.4328,-8.32556 3.5631,-3.4925 8.5725,-5.43278 5.0447,-1.94028 11.2536,-1.94028 3.2103,0 6.0325,0.52917 2.8223,0.52916 5.1859,1.44639 2.3989,0.91722 4.3744,2.18722 1.9756,1.27 3.5278,2.75167 l -3.4572,5.25639 q -0.8114,1.23472 -2.1167,1.51695 -1.27,0.28222 -2.7517,-0.635 -1.4111,-0.84667 -2.6811,-1.44639 -1.2347,-0.635 -2.54,-1.02306 -1.3052,-0.38806 -2.7516,-0.56445 -1.4464,-0.17638 -3.2456,-0.17638 -3.3514,0 -6.0325,1.19944 -2.6811,1.16417 -4.5861,3.31611 -1.8697,2.15195 -2.8928,5.18584 -1.023,2.99861 -1.023,6.70278 0,4.09223 1.1288,7.26723 1.1289,3.175 3.175,5.36223 2.0814,2.18722 4.9389,3.35139 2.8928,1.12889 6.3853,1.12889 2.152,0 3.8806,-0.42334 1.7639,-0.42333 3.4219,-1.12889 v -7.79639 h -5.08 q -1.1289,0 -1.7639,-0.59972 -0.635,-0.59973 -0.635,-1.51695 v -6.56167 h 18.2739 v 21.69585 z"
         style="font-weight:900;font-size:70.5556px;font-family:Lato;-inkscape-font-specification:'Lato, Heavy'"
         id="path97" />
      <path
         d="m 1832.1037,659.4357 q 0.7761,0 1.3052,0.0706 0.5292,0.0706 0.9525,0.28222 0.4234,0.17639 0.8114,0.52917 0.3881,0.35278 0.882,0.9525 l 24.4122,30.86808 q -0.1411,-1.48167 -0.2117,-2.85751 -0.071,-1.41111 -0.071,-2.64583 V 659.4357 h 10.5128 v 51.39976 h -6.2089 q -1.3759,0 -2.3284,-0.42333 -0.9172,-0.45861 -1.8344,-1.55223 L 1836.09,678.23877 q 0.1059,1.34056 0.1764,2.64584 0.071,1.27 0.071,2.39889 v 27.55196 h -10.5128 V 659.4357 h 6.2795 z"
         style="font-weight:900;font-size:70.5556px;font-family:Lato;-inkscape-font-specification:'Lato, Heavy'"
         id="path99" />
      <path
         d="m 1892.6403,710.83546 h -11.9945 V 659.4357 h 11.9945 z"
         style="font-weight:900;font-size:70.5556px;font-family:Lato;-inkscape-font-specification:'Lato, Heavy'"
         id="path101" />
      <path
         d="m 1939.5244,659.4357 v 9.45445 h -14.4639 v 41.94531 h -11.9239 v -41.94531 h -14.4639 v -9.45445 z"
         style="font-weight:900;font-size:70.5556px;font-family:Lato;-inkscape-font-specification:'Lato, Heavy'"
         id="path103" />
      <path
         d="m 1957.5513,710.83546 h -11.9945 V 659.4357 h 11.9945 z"
         style="font-weight:900;font-size:70.5556px;font-family:Lato;-inkscape-font-specification:'Lato, Heavy'"
         id="path105" />
      <path
         d="m 2017.9468,685.11794 q 0,5.5739 -1.9403,10.37168 -1.905,4.79778 -5.3975,8.36084 -3.4925,3.52778 -8.4314,5.53861 -4.9036,2.01084 -10.9008,2.01084 -5.9972,0 -10.9361,-2.01084 -4.9389,-2.01083 -8.4667,-5.53861 -3.4925,-3.56306 -5.4328,-8.36084 -1.905,-4.79778 -1.905,-10.37168 0,-5.57389 1.905,-10.37167 1.9403,-4.79778 5.4328,-8.32556 3.5278,-3.52778 8.4667,-5.53862 4.9389,-2.01083 10.9361,-2.01083 5.9972,0 10.9008,2.04611 4.9389,2.01084 8.4314,5.53862 3.4925,3.52778 5.3975,8.32556 1.9403,4.79778 1.9403,10.33639 z m -12.2061,0 q 0,-3.81 -0.9878,-6.84389 -0.9878,-3.06917 -2.8575,-5.18584 -1.8344,-2.11666 -4.5155,-3.24555 -2.6812,-1.12889 -6.1031,-1.12889 -3.4572,0 -6.1736,1.12889 -2.6811,1.12889 -4.5509,3.24555 -1.8344,2.11667 -2.8222,5.18584 -0.9878,3.03389 -0.9878,6.84389 0,3.84528 0.9878,6.91445 0.9878,3.03389 2.8222,5.15056 1.8698,2.11667 4.5509,3.24556 2.7164,1.09361 6.1736,1.09361 3.4219,0 6.1031,-1.09361 2.6811,-1.12889 4.5155,-3.24556 1.8697,-2.11667 2.8575,-5.15056 0.9878,-3.06917 0.9878,-6.91445 z"
         style="font-weight:900;font-size:70.5556px;font-family:Lato;-inkscape-font-specification:'Lato, Heavy'"
         id="path107" />
      <path
         d="m 2031.2465,659.4357 q 0.7761,0 1.3053,0.0706 0.5291,0.0706 0.9525,0.28222 0.4233,0.17639 0.8113,0.52917 0.3881,0.35278 0.882,0.9525 l 24.4122,30.86808 q -0.1411,-1.48167 -0.2116,-2.85751 -0.071,-1.41111 -0.071,-2.64583 V 659.4357 h 10.5128 v 51.39976 h -6.2089 q -1.3758,0 -2.3283,-0.42333 -0.9173,-0.45861 -1.8345,-1.55223 l -24.2358,-30.62113 q 0.1058,1.34056 0.1764,2.64584 0.071,1.27 0.071,2.39889 v 27.55196 H 2024.967 V 659.4357 h 6.2795 z"
         style="font-weight:900;font-size:70.5556px;font-family:Lato;-inkscape-font-specification:'Lato, Heavy'"
         id="path109" />
      <path
         d="m 2124.4855,669.87793 q -0.5292,0.84667 -1.1289,1.27 -0.5645,0.42334 -1.4817,0.42334 -0.8114,0 -1.7639,-0.49389 -0.9172,-0.52917 -2.1166,-1.16417 -1.1642,-0.635 -2.6812,-1.12889 -1.5169,-0.52917 -3.4572,-0.52917 -3.3514,0 -5.0094,1.44639 -1.6228,1.41112 -1.6228,3.84528 0,1.55223 0.9878,2.57528 0.9877,1.02306 2.5752,1.76389 1.6228,0.74084 3.6689,1.37584 2.0814,0.59972 4.2334,1.37583 2.1519,0.74084 4.198,1.76389 2.0814,1.02306 3.6689,2.61056 1.6228,1.5875 2.6106,3.88056 0.9878,2.25778 0.9878,5.46806 0,3.56306 -1.2348,6.6675 -1.2347,3.10445 -3.5983,5.43278 -2.3283,2.29306 -5.7856,3.63362 -3.4219,1.30528 -7.7963,1.30528 -2.3989,0 -4.9037,-0.49389 -2.4694,-0.49389 -4.7977,-1.37584 -2.3284,-0.91722 -4.3745,-2.15194 -2.0461,-1.23473 -3.5631,-2.75167 l 3.5278,-5.57389 q 0.4234,-0.59973 1.0936,-0.98778 0.7056,-0.42334 1.517,-0.42334 1.0583,0 2.1167,0.67028 1.0936,0.67028 2.4341,1.48167 1.3759,0.81139 3.1397,1.48167 1.7639,0.67027 4.1628,0.67027 3.2456,0 5.0448,-1.41111 1.7991,-1.44639 1.7991,-4.55083 0,-1.79917 -0.9878,-2.92806 -0.9877,-1.12889 -2.6105,-1.86972 -1.5875,-0.74084 -3.6336,-1.30528 -2.0461,-0.56445 -4.1981,-1.23473 -2.1519,-0.70555 -4.198,-1.69333 -2.0462,-1.02306 -3.6689,-2.64584 -1.5875,-1.65805 -2.5753,-4.09222 -0.9878,-2.46945 -0.9878,-6.06778 0,-2.89278 1.1642,-5.64445 1.1641,-2.75167 3.4219,-4.90362 2.2578,-2.15194 5.5386,-3.42194 3.2809,-1.30528 7.5142,-1.30528 2.3636,0 4.5861,0.38806 2.2578,0.35277 4.2686,1.09361 2.0109,0.70555 3.7395,1.72861 1.7639,0.98778 3.1397,2.25778 z"
         style="font-weight:900;font-size:70.5556px;font-family:Lato;-inkscape-font-specification:'Lato, Heavy'"
         id="path111" />
      <path
         d="m 2158.4931,691.29156 v 19.5439 h -11.9239 v -19.5439 l -18.6267,-31.85586 h 10.5128 q 1.5522,0 2.4342,0.74084 0.9172,0.70555 1.5169,1.83444 l 7.2672,14.95779 q 0.9173,1.76389 1.6228,3.31611 0.7409,1.51695 1.3053,2.99862 0.5292,-1.51695 1.2347,-3.03389 0.7056,-1.55223 1.6228,-3.28084 l 7.1967,-14.95779 q 0.2469,-0.45861 0.5997,-0.91722 0.3528,-0.45861 0.8114,-0.81139 0.4939,-0.38805 1.0936,-0.59972 0.635,-0.24695 1.3758,-0.24695 h 10.5834 z"
         style="font-weight:900;font-size:70.5556px;font-family:Lato;-inkscape-font-specification:'Lato, Heavy'"
         id="path113" />
      <path
         d="m 2207.4585,669.87793 q -0.5292,0.84667 -1.1289,1.27 -0.5644,0.42334 -1.4817,0.42334 -0.8114,0 -1.7639,-0.49389 -0.9172,-0.52917 -2.1166,-1.16417 -1.1642,-0.635 -2.6811,-1.12889 -1.517,-0.52917 -3.4573,-0.52917 -3.3514,0 -5.0094,1.44639 -1.6228,1.41112 -1.6228,3.84528 0,1.55223 0.9878,2.57528 0.9878,1.02306 2.5753,1.76389 1.6228,0.74084 3.6689,1.37584 2.0814,0.59972 4.2333,1.37583 2.1519,0.74084 4.1981,1.76389 2.0813,1.02306 3.6688,2.61056 1.6228,1.5875 2.6106,3.88056 0.9878,2.25778 0.9878,5.46806 0,3.56306 -1.2347,6.6675 -1.2348,3.10445 -3.5984,5.43278 -2.3283,2.29306 -5.7855,3.63362 -3.422,1.30528 -7.7964,1.30528 -2.3989,0 -4.9036,-0.49389 -2.4695,-0.49389 -4.7978,-1.37584 -2.3284,-0.91722 -4.3745,-2.15194 -2.0461,-1.23473 -3.563,-2.75167 l 3.5278,-5.57389 q 0.4233,-0.59973 1.0936,-0.98778 0.7055,-0.42334 1.5169,-0.42334 1.0583,0 2.1167,0.67028 1.0936,0.67028 2.4341,1.48167 1.3759,0.81139 3.1398,1.48167 1.7639,0.67027 4.1628,0.67027 3.2455,0 5.0447,-1.41111 1.7991,-1.44639 1.7991,-4.55083 0,-1.79917 -0.9877,-2.92806 -0.9878,-1.12889 -2.6106,-1.86972 -1.5875,-0.74084 -3.6336,-1.30528 -2.0461,-0.56445 -4.1981,-1.23473 -2.1519,-0.70555 -4.198,-1.69333 -2.0461,-1.02306 -3.6689,-2.64584 -1.5875,-1.65805 -2.5753,-4.09222 -0.9878,-2.46945 -0.9878,-6.06778 0,-2.89278 1.1642,-5.64445 1.1642,-2.75167 3.4219,-4.90362 2.2578,-2.15194 5.5387,-3.42194 3.2808,-1.30528 7.5141,-1.30528 2.3636,0 4.5861,0.38806 2.2578,0.35277 4.2687,1.09361 2.0108,0.70555 3.7394,1.72861 1.7639,0.98778 3.1397,2.25778 z"
         style="font-weight:900;font-size:70.5556px;font-family:Lato;-inkscape-font-specification:'Lato, Heavy'"
         id="path115" />
      <path
         d="m 2255.0835,659.4357 v 9.45445 h -14.4639 v 41.94531 h -11.9239 v -41.94531 h -14.4639 v -9.45445 z"
         style="font-weight:900;font-size:70.5556px;font-family:Lato;-inkscape-font-specification:'Lato, Heavy'"
         id="path117" />
      <path
         d="m 2294.2065,659.4357 v 9.17223 h -21.0962 v 11.99445 h 16.1573 v 8.81946 h -16.1573 v 12.24139 h 21.0962 v 9.17223 h -33.0906 V 659.4357 Z"
         style="font-weight:900;font-size:70.5556px;font-family:Lato;-inkscape-font-specification:'Lato, Heavy'"
         id="path119" />
      <path
         d="m 2327.8263,687.34045 q 0.7056,1.34055 1.3406,2.78694 0.6703,1.44639 1.27,2.96334 0.5997,-1.55223 1.2347,-3.03389 0.6703,-1.48167 1.4111,-2.82223 l 13.1939,-25.96446 q 0.3528,-0.67028 0.7056,-1.02306 0.388,-0.38805 0.8466,-0.56444 0.4586,-0.17639 1.0231,-0.21167 0.5997,-0.0353 1.3758,-0.0353 h 9.1017 v 51.39976 h -10.5128 v -29.5628 q 0,-2.15194 0.2117,-4.65667 l -13.6173,26.42308 q -0.635,1.23472 -1.7286,1.86972 -1.0583,0.635 -2.4341,0.635 h -1.6228 q -1.3758,0 -2.4695,-0.635 -1.0583,-0.635 -1.6933,-1.86972 l -13.6878,-26.45835 q 0.1411,1.23472 0.2117,2.46944 0.07,1.19945 0.07,2.2225 v 29.5628 h -10.5127 V 659.4357 h 9.1016 q 0.7761,0 1.3406,0.0353 0.5997,0.0353 1.0583,0.21167 0.4586,0.17639 0.8114,0.56444 0.3881,0.35278 0.7408,1.02306 l 13.2292,26.0703 z"
         style="font-weight:900;font-size:70.5556px;font-family:Lato;-inkscape-font-specification:'Lato, Heavy'"
         id="path121" />
    </g>
  </g>
</svg>
